<svg xmlns:mydata="http://www.w3.org/2000/svg" mydata:contrastcolor="11111f" mydata:template="Contrast"
    mydata:presentation="2.5" mydata:layouttype="undefined" mydata:specialfontid="undefined" mydata:id1="005"
    mydata:id2="590" mydata:companyname="magna" mydata:companytagline="" version="1.1"
    xmlns="http://www.w3.org/2000/svg" xmlns:xlink="http://www.w3.org/1999/xlink" viewBox="0 35 550 400">
    <g fill="#11111f" fill-rule="nonzero" stroke="none" stroke-width="1" stroke-linecap="butt" stroke-linejoin="miter"
        stroke-miterlimit="10" stroke-dasharray="" stroke-dashoffset="0" font-family="none" font-weight="none"
        font-size="none" text-anchor="none" style="mix-blend-mode: normal">
        <g
            data-paper-data="{&quot;isGlobalGroup&quot;:true,&quot;bounds&quot;:{&quot;x&quot;:103.59053794322594,&quot;y&quot;:115,&quot;width&quot;:342.81892411354806,&quot;height&quot;:240}}">
            <g fill="#41b6e6" data-paper-data="{&quot;isPrimaryText&quot;:true}">
                <path
                    d="M170.84075,354.19413h-10.55695v-34.41083l-18.5754,32.6782c-0.45666,0.83274 -1.09465,1.464 -1.91395,1.8938c-0.81931,0.4298 -1.69905,0.6447 -2.63924,0.6447c-0.91332,0 -1.76621,-0.2149 -2.55865,-0.6447c-0.79244,-0.4298 -1.417,-1.06107 -1.87366,-1.8938l-18.65599,-32.6782v34.41083h-10.47637v-53.30858c0,-1.20881 0.35593,-2.28331 1.06778,-3.2235c0.71186,-0.94019 1.64533,-1.57145 2.80041,-1.8938c0.56411,-0.13431 1.12822,-0.18132 1.69234,-0.14103c0.56411,0.04029 1.10808,0.16117 1.6319,0.36264c0.52382,0.20147 1.00063,0.48352 1.43043,0.84617c0.4298,0.36264 0.79244,0.79916 1.08793,1.30955l23.85388,41.46223l23.85388,-41.46223c0.61784,-1.02077 1.47072,-1.74606 2.55865,-2.17586c1.08793,-0.4298 2.22287,-0.49696 3.40482,-0.20147c1.12822,0.32235 2.05498,0.95362 2.78027,1.8938c0.72529,0.94019 1.08793,2.01469 1.08793,3.2235z"
                    data-paper-data="{&quot;glyphName&quot;:&quot;M&quot;,&quot;glyphIndex&quot;:0,&quot;firstGlyphOfWord&quot;:true,&quot;word&quot;:1}">
                </path>
                <path
                    d="M239.70271,354.19413h-10.47637v-14.18339h-36.82846v14.18339h-10.47637v-28.89059c0,-4.21741 0.72529,-8.09904 2.17586,-11.64488c1.45057,-3.54585 3.46526,-6.59474 6.04406,-9.14667c2.5788,-2.55194 5.62769,-4.53976 9.14667,-5.96347c3.51898,-1.42371 7.36032,-2.13557 11.524,-2.13557h23.61212c0.72529,0 1.41028,0.13431 2.05498,0.40294c0.6447,0.26862 1.20881,0.6447 1.69234,1.12822c0.48352,0.48352 0.8596,1.04764 1.12822,1.69234c0.26862,0.6447 0.40294,1.32969 0.40294,2.05498zM192.39788,329.53437h36.82846v-22.64507h-18.41423c-0.32235,0 -1.00063,0.04701 -2.03483,0.14103c-1.03421,0.09402 -2.22959,0.32907 -3.58614,0.70514c-1.35656,0.37607 -2.78698,0.95362 -4.29128,1.73263c-1.5043,0.77901 -2.88772,1.85351 -4.15025,3.2235c-1.26254,1.36999 -2.30346,3.08247 -3.12276,5.13745c-0.81931,2.05498 -1.22896,4.54647 -1.22896,7.47448z"
                    data-paper-data="{&quot;glyphName&quot;:&quot;A&quot;,&quot;glyphIndex&quot;:1,&quot;word&quot;:1}">
                </path>
                <path
                    d="M308.88701,348.91565c0,0.75215 -0.13431,1.45057 -0.40294,2.09527c-0.26862,0.6447 -0.63798,1.2021 -1.10808,1.67219c-0.47009,0.47009 -1.02749,0.83945 -1.67219,1.10808c-0.6447,0.26862 -1.34312,0.40294 -2.09527,0.40294h-37.7955c-0.96705,0 -2.00797,-0.11417 -3.12276,-0.3425c-1.11479,-0.22833 -2.21615,-0.58426 -3.30408,-1.06778c-1.08793,-0.48352 -2.12885,-1.10808 -3.12276,-1.87366c-0.99391,-0.76558 -1.87366,-1.69234 -2.63924,-2.78027c-0.76558,-1.08793 -1.3767,-2.35047 -1.83336,-3.78761c-0.45666,-1.43714 -0.68499,-3.05561 -0.68499,-4.85539v-28.36678c0,-0.96705 0.11417,-2.00797 0.3425,-3.12276c0.22833,-1.11479 0.58426,-2.21615 1.06778,-3.30408c0.48352,-1.08793 1.11479,-2.12885 1.8938,-3.12276c0.77901,-0.99391 1.71248,-1.87366 2.80041,-2.63924c1.08793,-0.76558 2.34375,-1.3767 3.76746,-1.83336c1.42371,-0.45666 3.03546,-0.68499 4.83525,-0.68499h42.59046v10.47637h-42.59046c-1.36999,0 -2.41762,0.36264 -3.14291,1.08793c-0.72529,0.72529 -1.08793,1.79979 -1.08793,3.2235v28.28619c0,1.34312 0.36936,2.38404 1.10808,3.12276c0.73872,0.73872 1.77964,1.10808 3.12276,1.10808h32.59762v-13.13575h-27.88325v-10.55695h33.08114c0.75215,0 1.45057,0.14103 2.09527,0.42308c0.6447,0.28206 1.2021,0.66485 1.67219,1.14837c0.47009,0.48352 0.83945,1.04092 1.10808,1.67219c0.26862,0.63127 0.40294,1.30955 0.40294,2.03483z"
                    data-paper-data="{&quot;glyphName&quot;:&quot;G&quot;,&quot;glyphIndex&quot;:2,&quot;word&quot;:1}">
                </path>
                <path
                    d="M377.5475,349.72152c0,0.75215 -0.14103,1.45057 -0.42308,2.09527c-0.28206,0.6447 -0.65813,1.2021 -1.12822,1.67219c-0.47009,0.47009 -1.02749,0.83945 -1.67219,1.10808c-0.6447,0.26862 -1.32969,0.40294 -2.05498,0.40294c-0.6447,0 -1.29611,-0.12088 -1.95425,-0.36264c-0.65813,-0.24176 -1.24239,-0.63127 -1.75278,-1.16852l-38.27903,-39.97136v40.69665h-10.47637v-53.30858c0,-1.0745 0.3022,-2.04826 0.90661,-2.92129c0.60441,-0.87303 1.3767,-1.52445 2.31689,-1.95425c0.99391,-0.40294 2.01469,-0.50367 3.06232,-0.3022c1.04764,0.20147 1.94753,0.69171 2.69968,1.47072l38.27903,39.93107v-40.69665h10.47637z"
                    data-paper-data="{&quot;glyphName&quot;:&quot;N&quot;,&quot;glyphIndex&quot;:3,&quot;word&quot;:1}">
                </path>
                <path
                    d="M446.40946,354.19413h-10.47637v-14.18339h-36.82846v14.18339h-10.47637v-28.89059c0,-4.21741 0.72529,-8.09904 2.17586,-11.64488c1.45057,-3.54585 3.46526,-6.59474 6.04406,-9.14667c2.5788,-2.55194 5.62769,-4.53976 9.14667,-5.96347c3.51898,-1.42371 7.36032,-2.13557 11.524,-2.13557h23.61212c0.72529,0 1.41028,0.13431 2.05498,0.40294c0.6447,0.26862 1.20881,0.6447 1.69234,1.12822c0.48352,0.48352 0.8596,1.04764 1.12822,1.69234c0.26862,0.6447 0.40294,1.32969 0.40294,2.05498zM399.10464,329.53437h36.82846v-22.64507h-18.41423c-0.32235,0 -1.00063,0.04701 -2.03483,0.14103c-1.03421,0.09402 -2.22959,0.32907 -3.58614,0.70514c-1.35656,0.37607 -2.78698,0.95362 -4.29128,1.73263c-1.5043,0.77901 -2.88772,1.85351 -4.15025,3.2235c-1.26254,1.36999 -2.30346,3.08247 -3.12276,5.13745c-0.81931,2.05498 -1.22896,4.54647 -1.22896,7.47448z"
                    data-paper-data="{&quot;glyphName&quot;:&quot;A&quot;,&quot;glyphIndex&quot;:4,&quot;lastGlyphOfWord&quot;:true,&quot;word&quot;:1}">
                </path>
            </g>
            <g
                data-paper-data="{&quot;fillRule&quot;:&quot;nonzero&quot;,&quot;fillRuleOriginal&quot;:&quot;nonzero&quot;,&quot;isIcon&quot;:true,&quot;iconStyle&quot;:&quot;standalone&quot;,&quot;selectedEffects&quot;:{&quot;container&quot;:&quot;&quot;,&quot;transformation&quot;:&quot;&quot;,&quot;pattern&quot;:&quot;&quot;},&quot;bounds&quot;:{&quot;x&quot;:210.4522387277504,&quot;y&quot;:115,&quot;width&quot;:129.0955225444992,&quot;height&quot;:149.28331612468503},&quot;iconType&quot;:&quot;icon&quot;,&quot;rawIconId&quot;:&quot;b0124782-08b6-4049-9162-7a601bceeb63&quot;,&quot;isDetailed&quot;:false,&quot;suitableAsStandaloneIcon&quot;:true}">
                <path
                    d="M247.81465,256.93987l-23.97886,-15.33532c-3.99648,-3.06706 -6.04119,-7.62119 -6.04119,-13.47649v-90.1531c0.4647,6.50589 4.64707,12.26826 12.45414,17.19415c2.78824,1.76589 6.78472,4.08942 11.89649,6.9706c3.8106,2.13765 5.66942,5.76237 5.66942,10.87414zM313.803,123.84788l-19.88945,24.53651c-6.59884,8.27178 -11.89649,14.68473 -15.80003,19.42474c-0.83647,0.92942 -1.85882,1.39412 -3.16001,1.39412c-1.20824,0 -2.23059,-0.4647 -3.06706,-1.48706c-24.44358,-30.11299 -36.34006,-44.70478 -35.68948,-43.86831c-5.11177,-6.22707 -10.1306,-9.10825 -15.14943,-8.82943c-3.25294,0.18588 -5.8553,1.39412 -7.80707,3.53177c-1.85882,2.13765 -2.78824,4.83295 -2.78824,8.17884v101.399c0,8.27178 2.97412,14.68473 8.82943,19.23886c0.09294,0.09294 8.36472,5.3906 24.62946,15.70708c2.41647,1.58 4.92589,1.58 7.43531,0.18588c2.50942,-1.39412 3.71765,-3.43883 3.71765,-6.32001v-61.89893l5.29765,6.69177c3.62471,4.74001 8.45766,7.06354 14.40591,7.15649c5.94825,0 10.7812,-2.32354 14.49885,-6.9706l19.42474,-24.53651v42.19537c0,6.41295 2.32354,11.98944 6.87766,16.54355c4.55413,4.55413 10.03766,6.78472 16.45062,6.78472h7.52825v-116.17667c0,-3.34589 -0.92942,-6.04119 -2.78824,-8.17884c-1.95177,-2.13765 -4.46118,-3.34589 -7.71413,-3.53177c-5.11177,-0.27882 -10.22355,2.60236 -15.24238,8.82943z"
                    data-paper-data="{&quot;isPathIcon&quot;:true}"></path>
            </g>
        </g>
    </g>
</svg>