<svg width="130" height="30" viewBox="0 0 130 30" fill="none" xmlns="http://www.w3.org/2000/svg">
<path d="M55.1108 22.783H52.2677V13.516L47.2653 22.3164C47.1423 22.5406 46.9705 22.7106 46.7499 22.8264C46.5292 22.9421 46.2923 23 46.0391 23C45.7931 23 45.5635 22.9421 45.3501 22.8264C45.1366 22.7106 44.9684 22.5406 44.8455 22.3164L39.8213 13.516V22.783H37V8.42674C37 8.1012 37.0959 7.81183 37.2876 7.55864C37.4793 7.30544 37.7307 7.13544 38.0417 7.04863C38.1936 7.01246 38.3456 6.9998 38.4975 7.01065C38.6494 7.0215 38.7959 7.05406 38.937 7.10831C39.078 7.16257 39.2064 7.23852 39.3222 7.33619C39.4379 7.43385 39.5356 7.5514 39.6152 7.68885L46.0391 18.8548L52.4631 7.68885C52.6294 7.41395 52.8591 7.21863 53.1521 7.10289C53.4451 6.98714 53.7507 6.96905 54.069 7.04863C54.3729 7.13544 54.6225 7.30544 54.8178 7.55864C55.0131 7.81183 55.1108 8.1012 55.1108 8.42674L55.1108 22.783Z" fill="white"/>
<path d="M73.6556 22.7829H70.8343V18.9632H60.9162V22.7829H58.0949V15.0025C58.0949 13.8668 58.2902 12.8214 58.6808 11.8665C59.0715 10.9116 59.614 10.0905 60.3085 9.40327C61.003 8.71602 61.8241 8.18069 62.7718 7.79728C63.7194 7.41387 64.7539 7.22217 65.8752 7.22217H72.2341C72.4294 7.22217 72.6139 7.25833 72.7875 7.33068C72.9611 7.40302 73.113 7.5043 73.2432 7.63452C73.3734 7.76473 73.4747 7.91664 73.5471 8.09026C73.6194 8.26389 73.6556 8.44836 73.6556 8.64368L73.6556 22.7829ZM60.9162 16.1419H70.8343V10.0435H65.8752C65.7884 10.0435 65.6058 10.0562 65.3272 10.0815C65.0487 10.1068 64.7268 10.1701 64.3615 10.2714C63.9961 10.3726 63.6109 10.5282 63.2058 10.738C62.8007 10.9478 62.4281 11.2371 62.0881 11.6061C61.7481 11.975 61.4678 12.4362 61.2472 12.9896C61.0265 13.543 60.9162 14.214 60.9162 15.0025L60.9162 16.1419Z" fill="white"/>
<path d="M92.2872 21.3614C92.2872 21.5639 92.251 21.752 92.1787 21.9256C92.1064 22.0992 92.0069 22.2494 91.8803 22.376C91.7537 22.5026 91.6036 22.602 91.43 22.6744C91.2563 22.7467 91.0683 22.7829 90.8657 22.7829H80.6872C80.4268 22.7829 80.1465 22.7521 79.8462 22.6906C79.546 22.6292 79.2494 22.5333 78.9564 22.4031C78.6635 22.2729 78.3831 22.1047 78.1155 21.8985C77.8478 21.6923 77.6109 21.4427 77.4047 21.1498C77.1985 20.8568 77.034 20.5168 76.911 20.1297C76.788 19.7427 76.7265 19.3069 76.7265 18.8222V11.1829C76.7265 10.9224 76.7572 10.6421 76.8187 10.3419C76.8802 10.0417 76.9761 9.74508 77.1063 9.4521C77.2365 9.15911 77.4065 8.87879 77.6163 8.61112C77.8261 8.34346 78.0775 8.10654 78.3705 7.90037C78.6635 7.69419 79.0016 7.52961 79.3851 7.40663C79.7685 7.28365 80.2025 7.22217 80.6872 7.22217H92.157V10.0435H80.6872C80.3183 10.0435 80.0361 10.1412 79.8408 10.3365C79.6455 10.5318 79.5478 10.8212 79.5478 11.2046V18.8222C79.5478 19.1839 79.6473 19.4642 79.8462 19.6631C80.0452 19.8621 80.3255 19.9616 80.6872 19.9616H89.4659V16.424H81.9568V13.581H90.8657C91.0683 13.581 91.2563 13.619 91.43 13.6949C91.6036 13.7709 91.7537 13.874 91.8803 14.0042C92.0069 14.1344 92.1064 14.2845 92.1787 14.4545C92.251 14.6245 92.2872 14.8072 92.2872 15.0025V21.3614Z" fill="white"/>
<path d="M110.778 21.5784C110.778 21.7809 110.74 21.969 110.664 22.1426C110.588 22.3163 110.487 22.4664 110.36 22.593C110.233 22.7196 110.083 22.819 109.91 22.8914C109.736 22.9637 109.552 22.9999 109.356 22.9999C109.183 22.9999 109.007 22.9673 108.83 22.9022C108.653 22.8371 108.495 22.7322 108.358 22.5875L98.0492 11.8231V22.7829H95.2279V8.42664C95.2279 8.13727 95.3093 7.87504 95.472 7.63993C95.6348 7.40481 95.8428 7.22938 96.096 7.11364C96.3637 7.00512 96.6386 6.978 96.9207 7.03226C97.2028 7.08651 97.4452 7.21853 97.6477 7.42832L107.956 18.1819V7.22215H110.778V21.5784Z" fill="white"/>
<path d="M129.323 22.7829H126.501V18.9632H116.583V22.7829H113.762V15.0025C113.762 13.8668 113.957 12.8214 114.348 11.8665C114.738 10.9116 115.281 10.0905 115.976 9.40327C116.67 8.71602 117.491 8.18069 118.439 7.79728C119.386 7.41387 120.421 7.22217 121.542 7.22217H127.901C128.096 7.22217 128.281 7.25833 128.454 7.33068C128.628 7.40302 128.78 7.5043 128.91 7.63452C129.04 7.76473 129.142 7.91664 129.214 8.09026C129.286 8.26389 129.323 8.44836 129.323 8.64368V22.7829ZM116.583 16.1419H126.501V10.0435H121.542C121.455 10.0435 121.273 10.0562 120.994 10.0815C120.716 10.1068 120.394 10.1701 120.028 10.2714C119.663 10.3726 119.278 10.5282 118.873 10.738C118.468 10.9478 118.095 11.2371 117.755 11.6061C117.415 11.975 117.135 12.4362 116.914 12.9896C116.694 13.543 116.583 14.214 116.583 15.0025V16.1419Z" fill="white"/>
<path d="M7.11681 28.5243L2.54931 25.4425C1.78805 24.8261 1.39858 23.9109 1.39858 22.7342V4.61705C1.48709 5.92447 2.28375 7.08248 3.77085 8.07239C4.30195 8.42726 5.0632 8.8942 6.0369 9.4732C6.76274 9.90278 7.11681 10.6312 7.11681 11.6585V28.5243ZM19.6863 1.77807L15.8977 6.70893C14.6408 8.37123 13.6317 9.65998 12.8881 10.6125C12.7288 10.7993 12.5341 10.8927 12.2862 10.8927C12.0561 10.8927 11.8613 10.7993 11.702 10.5939C7.04599 4.54234 4.77995 1.60997 4.90387 1.77807C3.93018 0.526675 2.97419 -0.052327 2.0182 0.00370473C1.39858 0.0410592 0.902878 0.283867 0.531105 0.71345C0.177036 1.14303 0 1.68468 0 2.35707V22.7342C0 24.3965 0.566513 25.6853 1.68183 26.6005C1.69954 26.6192 3.27515 27.6838 6.37326 29.757C6.83355 30.0745 7.31155 30.0745 7.78954 29.7943C8.26754 29.5142 8.49768 29.1033 8.49768 28.5243V16.085L9.50678 17.4298C10.1972 18.3824 11.1178 18.8493 12.2508 18.868C13.3838 18.868 14.3044 18.401 15.0126 17.4672L18.7126 12.5363V21.0159C18.7126 22.3046 19.1552 23.4253 20.0227 24.3405C20.8901 25.2557 21.9346 25.704 23.1562 25.704H24.5902V2.35707C24.5902 1.68468 24.4131 1.14303 24.0591 0.71345C23.6873 0.283867 23.2093 0.0410592 22.5897 0.00370473C21.616 -0.052327 20.6423 0.526675 19.6863 1.77807Z" fill="#41B6E6"/>
</svg>
