<svg width="550" height="150" viewBox="0 0 550 150" fill="none" xmlns="http://www.w3.org/2000/svg">
    <path d="M274.25 103.606H263.693V69.1956L245.118 101.874C244.661 102.707 244.023 103.338 243.204 103.768C242.385 104.197 241.505 104.412 240.565 104.412C239.651 104.412 238.798 104.197 238.006 103.768C237.214 103.338 236.589 102.707 236.132 101.874L217.476 69.1956V103.606H207V50.2979C207 49.0891 207.356 48.0146 208.068 47.0744C208.78 46.1342 209.713 45.5029 210.868 45.1806C211.432 45.0463 211.996 44.9993 212.561 45.0396C213.125 45.0798 213.669 45.2007 214.192 45.4022C214.716 45.6037 215.193 45.8857 215.623 46.2484C216.053 46.611 216.415 47.0475 216.711 47.5579L240.565 89.0201L264.419 47.5579C265.036 46.5371 265.889 45.8119 266.977 45.3821C268.065 44.9523 269.2 44.8851 270.382 45.1806C271.51 45.5029 272.437 46.1342 273.162 47.0744C273.888 48.0146 274.25 49.0891 274.25 50.2979L274.25 103.606Z" fill="#41B6E6"/>
    <path d="M343.112 103.606H332.636V89.423H295.807V103.606H285.331V74.7158C285.331 70.4983 286.056 66.6167 287.507 63.0709C288.957 59.525 290.972 56.4762 293.551 53.9242C296.13 51.3723 299.179 49.3845 302.698 47.9608C306.217 46.537 310.058 45.8252 314.222 45.8252H337.834C338.559 45.8252 339.244 45.9595 339.889 46.2281C340.533 46.4967 341.097 46.8728 341.581 47.3564C342.065 47.8399 342.441 48.404 342.709 49.0487C342.978 49.6934 343.112 50.3784 343.112 51.1037L343.112 103.606ZM295.807 78.9466H332.636V56.3015H314.222C313.899 56.3015 313.221 56.3485 312.187 56.4426C311.153 56.5366 309.957 56.7716 308.601 57.1477C307.244 57.5238 305.814 58.1013 304.309 58.8803C302.805 59.6594 301.422 60.7338 300.159 62.1038C298.897 63.4738 297.856 65.1863 297.036 67.2413C296.217 69.2963 295.807 71.7877 295.807 74.7158L295.807 78.9466Z" fill="#41B6E6"/>
    <path d="M412.296 98.3279C412.296 99.08 412.162 99.7785 411.894 100.423C411.625 101.068 411.256 101.625 410.785 102.095C410.315 102.565 409.758 102.935 409.113 103.203C408.469 103.472 407.77 103.606 407.018 103.606H369.222C368.255 103.606 367.215 103.492 366.1 103.264C364.985 103.036 363.884 102.68 362.796 102.196C361.708 101.713 360.667 101.088 359.673 100.322C358.679 99.5568 357.799 98.6301 357.034 97.5421C356.268 96.4542 355.657 95.1917 355.2 93.7545C354.744 92.3174 354.515 90.6989 354.515 88.8991V60.5324C354.515 59.5653 354.629 58.5244 354.858 57.4096C355.086 56.2948 355.442 55.1935 355.926 54.1055C356.409 53.0176 357.04 51.9767 357.819 50.9828C358.598 49.9888 359.532 49.1091 360.62 48.3435C361.708 47.578 362.964 46.9668 364.387 46.5102C365.811 46.0535 367.423 45.8252 369.223 45.8252H411.813V56.3015H369.223C367.853 56.3015 366.805 56.6642 366.08 57.3895C365.354 58.1148 364.992 59.1893 364.992 60.613V88.8992C364.992 90.2423 365.361 91.2832 366.1 92.0219C366.838 92.7607 367.879 93.13 369.223 93.13H401.82V79.9943H373.937V69.4373H407.018C407.77 69.4373 408.469 69.5783 409.113 69.8604C409.758 70.1424 410.315 70.5252 410.785 71.0088C411.256 71.4923 411.625 72.0497 411.894 72.6809C412.162 73.3122 412.296 73.9905 412.296 74.7158V98.3279Z" fill="#41B6E6"/>
    <path d="M480.957 99.134C480.957 99.8861 480.816 100.585 480.534 101.229C480.252 101.874 479.876 102.431 479.406 102.901C478.936 103.372 478.378 103.741 477.733 104.009C477.089 104.278 476.404 104.412 475.678 104.412C475.034 104.412 474.382 104.292 473.724 104.05C473.066 103.808 472.482 103.419 471.971 102.881L433.692 62.9099V103.607H423.216V50.298C423.216 49.2235 423.518 48.2497 424.123 47.3767C424.727 46.5037 425.499 45.8523 426.44 45.4225C427.433 45.0195 428.454 44.9188 429.502 45.1203C430.55 45.3217 431.449 45.812 432.202 46.591L470.481 86.522V45.8254H480.957V99.134Z" fill="#41B6E6"/>
    <path d="M549.819 103.606H539.343V89.423H502.514V103.606H492.038V74.7158C492.038 70.4983 492.763 66.6167 494.214 63.0709C495.664 59.525 497.679 56.4762 500.258 53.9242C502.836 51.3723 505.885 49.3845 509.404 47.9608C512.923 46.537 516.765 45.8252 520.928 45.8252H544.54C545.266 45.8252 545.951 45.9595 546.595 46.2281C547.24 46.4967 547.804 46.8728 548.288 47.3564C548.771 47.8399 549.147 48.404 549.416 49.0487C549.685 49.6934 549.819 50.3784 549.819 51.1037V103.606ZM502.514 78.9466H539.343V56.3015H520.928C520.606 56.3015 519.928 56.3485 518.893 56.4426C517.859 56.5366 516.664 56.7716 515.307 57.1477C513.951 57.5238 512.52 58.1013 511.016 58.8803C509.512 59.6594 508.128 60.7338 506.866 62.1038C505.603 63.4738 504.562 65.1863 503.743 67.2413C502.924 69.2963 502.514 71.7877 502.514 74.7158V78.9466Z" fill="#41B6E6"/>
    <path d="M37.3624 141.94L13.3836 126.605C9.38708 123.537 7.34238 118.983 7.34238 113.128V22.9749C7.80708 29.4808 11.9894 35.2432 19.7965 40.1691C22.5847 41.935 26.5812 44.2585 31.693 47.1397C35.5036 49.2773 37.3624 52.9021 37.3624 58.0138V141.94ZM103.351 8.84787L83.4613 33.3844C76.8625 41.6562 71.5648 48.0691 67.6613 52.8091C66.8248 53.7385 65.8025 54.2032 64.5013 54.2032C63.2931 54.2032 62.2707 53.7385 61.4342 52.7162C36.9906 22.6032 25.0942 8.0114 25.7448 8.84787C20.633 2.6208 15.6142 -0.260385 10.5953 0.0184352C7.34238 0.204315 4.74001 1.41255 2.78824 3.5502C0.929419 5.68785 0 8.38315 0 11.729V113.128C0 121.4 2.97413 127.813 8.82944 132.367C8.92238 132.46 17.1942 137.758 33.4589 148.074C35.8754 149.654 38.3848 149.654 40.8942 148.26C43.4036 146.866 44.6119 144.821 44.6119 141.94V80.0409L49.9095 86.7327C53.5342 91.4727 58.3672 93.7962 64.3154 93.8892C70.2637 93.8892 75.0966 91.5656 78.8143 86.9186L98.239 62.3821V104.577C98.239 110.99 100.563 116.567 105.117 121.121C109.671 125.675 115.154 127.906 121.567 127.906H129.096V11.729C129.096 8.38315 128.166 5.68785 126.307 3.5502C124.356 1.41255 121.846 0.204315 118.593 0.0184352C113.481 -0.260385 108.37 2.6208 103.351 8.84787Z" fill="#11111F"/>
    </svg>
    